<?xml version="1.0" encoding="UTF-8"?>
<!DOCTYPE svg PUBLIC "-//W3C//DTD SVG 1.1//EN" "http://www.w3.org/Graphics/SVG/1.1/DTD/svg11.dtd">
<svg xmlns="http://www.w3.org/2000/svg" version="1.1" width="269px" height="264px" style="shape-rendering:geometricPrecision; text-rendering:geometricPrecision; image-rendering:optimizeQuality; fill-rule:evenodd; clip-rule:evenodd" xmlns:xlink="http://www.w3.org/1999/xlink">
<g><path style="opacity:1" fill="#efeee0" d="M 176.5,31.5 C 177.833,32.1667 177.833,32.1667 176.5,31.5 Z"/></g>
<g><path style="opacity:1" fill="#e9ebe4" d="M 70.5,32.5 C 71.8333,33.1667 71.8333,33.1667 70.5,32.5 Z"/></g>
<g><path style="opacity:1" fill="#e7e9e2" d="M 87.5,32.5 C 88.8333,33.1667 88.8333,33.1667 87.5,32.5 Z"/></g>
<g><path style="opacity:1" fill="#eae7dd" d="M 176.5,32.5 C 175.833,33.1667 175.833,33.1667 176.5,32.5 Z"/></g>
<g><path style="opacity:1" fill="#dae1e2" d="M 180.5,33.5 C 179.761,33.631 179.094,33.4643 178.5,33C 179.437,32.3083 180.103,32.475 180.5,33.5 Z"/></g>
<g><path style="opacity:1" fill="#8492a1" d="M 185.5,33.5 C 183.784,33.6287 182.117,33.962 180.5,34.5C 180.5,34.1667 180.5,33.8333 180.5,33.5C 182.284,32.2801 183.95,32.2801 185.5,33.5 Z"/></g>
<g><path style="opacity:1" fill="#86bad0" d="M 86.5,36.5 C 83.0804,34.7779 79.4137,34.1113 75.5,34.5C 77.8184,32.63 80.3184,31.9633 83,32.5C 84.6268,33.5323 85.7934,34.8656 86.5,36.5 Z"/></g>
<g><path style="opacity:1" fill="#f5ece1" d="M 89.5,33.5 C 90.8333,34.1667 90.8333,34.1667 89.5,33.5 Z"/></g>
<g><path style="opacity:1" fill="#e3edeb" d="M 64.5,35.5 C 64.8966,34.475 65.5632,34.3083 66.5,35C 65.9056,35.4643 65.2389,35.631 64.5,35.5 Z"/></g>
<g><path style="opacity:1" fill="#e8eaeb" d="M 174.5,34.5 C 175.833,35.1667 175.833,35.1667 174.5,34.5 Z"/></g>
<g><path style="opacity:1" fill="#e3e5e6" d="M 191.5,34.5 C 192.833,35.1667 192.833,35.1667 191.5,34.5 Z"/></g>
<g><path style="opacity:1" fill="#e6ece4" d="M 193.5,35.5 C 194.833,36.1667 194.833,36.1667 193.5,35.5 Z"/></g>
<g><path style="opacity:1" fill="#ddece9" d="M 90.5,37.5 C 90.8966,36.475 91.5632,36.3083 92.5,37C 91.9056,37.4643 91.2389,37.631 90.5,37.5 Z"/></g>
<g><path style="opacity:1" fill="#c2cccb" d="M 191.5,36.5 C 192.167,36.5 192.833,36.5 193.5,36.5C 193.5,37.1667 193.5,37.8333 193.5,38.5C 192.5,38.1667 191.833,37.5 191.5,36.5 Z"/></g>
<g><path style="opacity:1" fill="#c1ebf3" d="M 75.5,34.5 C 74.3065,35.2719 73.3065,36.2719 72.5,37.5C 70.0202,38.242 67.6869,39.242 65.5,40.5C 66.0476,39.3115 66.3809,38.1448 66.5,37C 67.4491,36.3828 68.2825,36.5494 69,37.5C 70.8705,35.7811 73.0372,34.7811 75.5,34.5 Z"/></g>
<g><path style="opacity:1" fill="#e3ecec" d="M 195.5,38.5 C 195.897,37.475 196.563,37.3083 197.5,38C 196.906,38.4643 196.239,38.631 195.5,38.5 Z"/></g>
<g><path style="opacity:1" fill="#e7eee9" d="M 166.5,39.5 C 167.833,40.1667 167.833,40.1667 166.5,39.5 Z"/></g>
<g><path style="opacity:1" fill="#1f284a" d="M 185.5,33.5 C 187.483,34.4706 189.483,35.4706 191.5,36.5C 191.833,37.5 192.5,38.1667 193.5,38.5C 194.167,38.5 194.833,38.5 195.5,38.5C 197.635,40.0709 199.968,41.4043 202.5,42.5C 203.167,43.1667 203.833,43.8333 204.5,44.5C 203.504,44.4142 202.671,44.7476 202,45.5C 198.967,43.877 195.8,42.5437 192.5,41.5C 191.328,41.9186 190.328,42.5853 189.5,43.5C 189.902,41.6339 189.902,39.6339 189.5,37.5C 183.771,33.8616 179.938,35.195 178,41.5C 177.107,40.9186 176.107,40.5852 175,40.5C 172.104,41.3666 169.271,42.3666 166.5,43.5C 166.833,42.8333 167.167,42.1667 167.5,41.5C 171.598,38.736 175.932,36.4027 180.5,34.5C 182.117,33.962 183.784,33.6287 185.5,33.5 Z"/></g>
<g><path style="opacity:1" fill="#021949" d="M 204.5,44.5 C 206.027,44.427 207.027,45.0937 207.5,46.5C 207.511,48.0174 208.177,49.1841 209.5,50C 207.606,51.0793 207.273,52.4126 208.5,54C 211.082,53.7446 213.748,53.578 216.5,53.5C 218.507,57.8249 217.173,60.1582 212.5,60.5C 212.5,61.5 212.5,62.5 212.5,63.5C 214.833,63.5 217.167,63.5 219.5,63.5C 219.45,61.4099 220.45,60.0766 222.5,59.5C 225.819,59.448 229.153,60.1147 232.5,61.5C 232.5,78.1667 232.5,94.8333 232.5,111.5C 230.712,111.215 229.045,111.548 227.5,112.5C 229.777,113.421 232.11,114.087 234.5,114.5C 234.5,117.167 234.5,119.833 234.5,122.5C 230.069,121.53 227.735,123.197 227.5,127.5C 225.473,127.338 223.473,127.505 221.5,128C 215.488,131.841 209.154,134.841 202.5,137C 202.833,137.333 203.167,137.667 203.5,138C 202.733,139.47 202.067,140.97 201.5,142.5C 201.158,143.338 200.492,143.672 199.5,143.5C 197.801,143.34 196.134,143.506 194.5,144C 195.252,144.671 195.586,145.504 195.5,146.5C 194.609,147.11 193.609,147.443 192.5,147.5C 188.543,147.268 184.876,148.101 181.5,150C 180.663,151.011 180.33,152.178 180.5,153.5C 180.167,154.167 179.833,154.833 179.5,155.5C 163.907,163.771 148.574,172.438 133.5,181.5C 132.503,162.007 132.17,142.34 132.5,122.5C 149.569,112.792 166.569,102.792 183.5,92.5C 166.799,82.8287 150.132,73.162 133.5,63.5C 137.237,60.6819 141.57,58.8486 146.5,58C 147.821,54.3327 150.487,52.6661 154.5,53C 153.833,52.6667 153.167,52.3333 152.5,52C 154.074,51.647 155.741,50.9804 157.5,50C 156.402,49.2303 156.402,48.397 157.5,47.5C 159.027,47.573 160.027,46.9063 160.5,45.5C 161.79,44.9423 162.623,43.9423 163,42.5C 163.383,43.056 163.883,43.3893 164.5,43.5C 165.167,43.5 165.833,43.5 166.5,43.5C 169.271,42.3666 172.104,41.3666 175,40.5C 176.107,40.5852 177.107,40.9186 178,41.5C 179.938,35.195 183.771,33.8616 189.5,37.5C 189.902,39.6339 189.902,41.6339 189.5,43.5C 190.328,42.5853 191.328,41.9186 192.5,41.5C 195.8,42.5437 198.967,43.877 202,45.5C 202.671,44.7476 203.504,44.4142 204.5,44.5 Z"/></g>
<g><path style="opacity:1" fill="#0384ce" d="M 130.5,62.5 C 130.833,62.5 131.167,62.5 131.5,62.5C 131.842,63.3382 132.508,63.6716 133.5,63.5C 150.132,73.162 166.799,82.8287 183.5,92.5C 166.569,102.792 149.569,112.792 132.5,122.5C 132.167,122.5 131.833,122.5 131.5,122.5C 124.494,119 117.827,115 111.5,110.5C 106.811,106.302 101.478,102.802 95.5,100C 93.8333,99 92.5,97.6667 91.5,96C 89.3921,95.6401 87.3921,94.9734 85.5,94C 85.8333,93.6667 86.1667,93.3333 86.5,93C 84.6794,90.7563 82.346,89.5897 79.5,89.5C 78.5363,109.133 78.203,128.8 78.5,148.5C 75.646,148.076 72.9793,147.076 70.5,145.5C 69.6701,139.862 69.1701,134.196 69,128.5C 66.1257,126.109 64.6257,126.442 64.5,129.5C 60.9966,128.477 57.4966,127.477 54,126.5C 52.5,126.667 51,126.833 49.5,127C 50.3081,127.308 50.9747,127.808 51.5,128.5C 49.6675,129.248 48.0009,130.248 46.5,131.5C 44.3821,130.054 42.0488,129.387 39.5,129.5C 38.5084,129.672 37.8417,129.338 37.5,128.5C 37.4959,126.158 36.6625,124.158 35,122.5C 34.3828,123.449 34.5494,124.282 35.5,125C 34.2068,125.49 32.8734,125.657 31.5,125.5C 30.3931,122.769 29.3931,119.936 28.5,117C 28.6483,115.744 28.9816,114.577 29.5,113.5C 31.486,96.5322 32.1527,79.1989 31.5,61.5C 32.9305,61.4208 34.2638,61.7542 35.5,62.5C 37.5499,61.9234 38.5499,60.5901 38.5,58.5C 44.2899,60.152 50.2899,60.8186 56.5,60.5C 56.33,59.1779 56.6634,58.0113 57.5,57C 56.5,55 55.5,55 54.5,57C 52.1902,57.4966 49.8568,57.6633 47.5,57.5C 47.7135,55.8561 47.3802,54.3561 46.5,53C 48.2852,51.8372 50.2852,51.1705 52.5,51C 53.7101,49.9609 54.7101,48.7942 55.5,47.5C 57.1307,45.3567 59.1307,43.69 61.5,42.5C 61.369,41.7611 61.5357,41.0944 62,40.5C 63.073,40.2014 64.2397,40.2014 65.5,40.5C 67.6869,39.242 70.0202,38.242 72.5,37.5C 74.6073,36.6996 76.7739,36.0329 79,35.5C 82.0522,36.7113 85.2188,37.5447 88.5,38C 89.8331,39.8402 89.6665,40.3402 88,39.5C 86.401,41.056 84.901,42.7227 83.5,44.5C 85.7427,45.4742 88.076,45.8076 90.5,45.5C 90.5,44.5 90.5,43.5 90.5,42.5C 92.1992,42.3398 93.8659,42.5065 95.5,43C 96.9641,46.5399 99.6307,48.3732 103.5,48.5C 104.262,49.6283 104.929,50.7949 105.5,52C 107.764,52.2362 109.931,52.7362 112,53.5C 112.551,55.3533 111.885,56.6867 110,57.5C 107.435,55.8207 104.602,55.154 101.5,55.5C 101.286,57.1439 101.62,58.6439 102.5,60C 106.167,60.6667 109.833,60.6667 113.5,60C 116.101,56.779 118.767,56.779 121.5,60C 121.167,60.3333 120.833,60.6667 120.5,61C 123.542,61.1785 126.375,62.0118 129,63.5C 129.765,63.4301 130.265,63.0967 130.5,62.5 Z"/></g>
<g><path style="opacity:1" fill="#e4ebea" d="M 202.5,41.5 C 203.833,42.1667 203.833,42.1667 202.5,41.5 Z"/></g>
<g><path style="opacity:1" fill="#c4eefa" d="M 103.5,44.5 C 104.306,45.7281 105.306,46.7281 106.5,47.5C 101.917,45.5724 97.5835,43.2391 93.5,40.5C 94.4959,40.5858 95.3292,40.2524 96,39.5C 98.4426,41.3009 100.943,42.9676 103.5,44.5 Z"/></g>
<g><path style="opacity:1" fill="#97a1b4" d="M 167.5,41.5 C 167.167,42.1667 166.833,42.8333 166.5,43.5C 165.833,43.5 165.167,43.5 164.5,43.5C 164.973,42.0937 165.973,41.427 167.5,41.5 Z"/></g>
<g><path style="opacity:1" fill="#b6e4f1" d="M 61.5,42.5 C 59.1307,43.69 57.1307,45.3567 55.5,47.5C 53.6854,48.6298 51.6854,49.2964 49.5,49.5C 48.3215,47.4935 48.8215,47.1602 51,48.5C 53.7955,45.9167 56.7955,43.5834 60,41.5C 60.3826,42.056 60.8826,42.3893 61.5,42.5 Z"/></g>
<g><path style="opacity:1" fill="#dbf1f5" d="M 103.5,43.5 C 104.833,44.1667 104.833,44.1667 103.5,43.5 Z"/></g>
<g><path style="opacity:1" fill="#a4abba" d="M 160.5,45.5 C 160.027,46.9063 159.027,47.573 157.5,47.5C 157.973,46.0937 158.973,45.427 160.5,45.5 Z"/></g>
<g><path style="opacity:1" fill="#e0edea" d="M 109.5,47.5 C 110.833,48.1667 110.833,48.1667 109.5,47.5 Z"/></g>
<g><path style="opacity:1" fill="#eaeee7" d="M 42.5,49.5 C 42.8966,48.475 43.5632,48.3083 44.5,49C 43.9056,49.4643 43.2389,49.631 42.5,49.5 Z"/></g>
<g><path style="opacity:1" fill="#edeee3" d="M 148.5,48.5 C 149.833,49.1667 149.833,49.1667 148.5,48.5 Z"/></g>
<g><path style="opacity:1" fill="#d9e1e7" d="M 214.5,50.5 C 213.5,50.1667 212.833,49.5 212.5,48.5C 214.833,47.5 215.5,48.1667 214.5,50.5 Z"/></g>
<g><path style="opacity:1" fill="#eef0e1" d="M 39.5,50.5 C 40.8333,51.1667 40.8333,51.1667 39.5,50.5 Z"/></g>
<g><path style="opacity:1" fill="#edefde" d="M 118.5,50.5 C 119.833,51.1667 119.833,51.1667 118.5,50.5 Z"/></g>
<g><path style="opacity:1" fill="#e8e8ed" d="M 218.5,50.5 C 219.833,51.1667 219.833,51.1667 218.5,50.5 Z"/></g>
<g><path style="opacity:1" fill="#e9e6e6" d="M 222.5,50.5 C 223.833,51.1667 223.833,51.1667 222.5,50.5 Z"/></g>
<g><path style="opacity:1" fill="#e4eaed" d="M 145.5,51.5 C 146.833,52.1667 146.833,52.1667 145.5,51.5 Z"/></g>
<g><path style="opacity:1" fill="#e5e5ec" d="M 222.5,51.5 C 222.103,52.525 221.437,52.6917 220.5,52C 221.094,51.5357 221.761,51.369 222.5,51.5 Z"/></g>
<g><path style="opacity:1" fill="#c5f5fc" d="M 45.5,51.5 C 42.5015,54.0017 39.1682,56.0017 35.5,57.5C 37.9103,55.5962 40.2437,53.4295 42.5,51C 43.5768,50.5304 44.5768,50.6971 45.5,51.5 Z"/></g>
<g><path style="opacity:1" fill="#bff0f9" d="M 109.5,49.5 C 111.45,49.923 113.45,50.2563 115.5,50.5C 118.238,52.9148 120.905,55.2481 123.5,57.5C 118.468,55.3218 113.801,52.6551 109.5,49.5 Z"/></g>
<g><path style="opacity:1" fill="#2183be" d="M 75.5,34.5 C 79.4137,34.1113 83.0804,34.7779 86.5,36.5C 87.9587,36.4326 89.2921,36.7659 90.5,37.5C 91.6935,38.2719 92.6935,39.2719 93.5,40.5C 97.5835,43.2391 101.917,45.5724 106.5,47.5C 107.391,48.1098 108.391,48.4431 109.5,48.5C 109.5,48.8333 109.5,49.1667 109.5,49.5C 113.801,52.6551 118.468,55.3218 123.5,57.5C 124.71,57.9321 125.71,58.5987 126.5,59.5C 127.833,60.5 129.167,61.5 130.5,62.5C 130.265,63.0967 129.765,63.4301 129,63.5C 126.375,62.0118 123.542,61.1785 120.5,61C 120.833,60.6667 121.167,60.3333 121.5,60C 118.767,56.779 116.101,56.779 113.5,60C 109.833,60.6667 106.167,60.6667 102.5,60C 101.62,58.6439 101.286,57.1439 101.5,55.5C 104.602,55.154 107.435,55.8207 110,57.5C 111.885,56.6867 112.551,55.3533 112,53.5C 109.931,52.7362 107.764,52.2362 105.5,52C 104.929,50.7949 104.262,49.6283 103.5,48.5C 99.6307,48.3732 96.9641,46.5399 95.5,43C 93.8659,42.5065 92.1992,42.3398 90.5,42.5C 90.5,43.5 90.5,44.5 90.5,45.5C 88.076,45.8076 85.7427,45.4742 83.5,44.5C 84.901,42.7227 86.401,41.056 88,39.5C 89.6665,40.3402 89.8331,39.8402 88.5,38C 85.2188,37.5447 82.0522,36.7113 79,35.5C 76.7739,36.0329 74.6073,36.6996 72.5,37.5C 73.3065,36.2719 74.3065,35.2719 75.5,34.5 Z"/></g>
<g><path style="opacity:1" fill="#fef3dd" d="M 28.5,56.5 C 28.8966,55.475 29.5632,55.3083 30.5,56C 29.9056,56.4643 29.2389,56.631 28.5,56.5 Z"/></g>
<g><path style="opacity:1" fill="#ece7e6" d="M 135.5,56.5 C 136.833,57.1667 136.833,57.1667 135.5,56.5 Z"/></g>
<g><path style="opacity:1" fill="#e6edea" d="M 229.5,56.5 C 230.833,57.1667 230.833,57.1667 229.5,56.5 Z"/></g>
<g><path style="opacity:1" fill="#f1ebe2" d="M 132.5,57.5 C 133.833,58.1667 133.833,58.1667 132.5,57.5 Z"/></g>
<g><path style="opacity:1" fill="#e3e9eb" d="M 231.5,57.5 C 232.833,58.1667 232.833,58.1667 231.5,57.5 Z"/></g>
<g><path style="opacity:1" fill="#dfe1e2" d="M 234.5,57.5 C 235.833,58.1667 235.833,58.1667 234.5,57.5 Z"/></g>
<g><path style="opacity:1" fill="#e3ece2" d="M 27.5,60.5 C 26.4265,59.7494 26.2599,58.7494 27,57.5C 27.4828,58.448 27.6495,59.448 27.5,60.5 Z"/></g>
<g><path style="opacity:1" fill="#e4e6e7" d="M 236.5,58.5 C 237.833,59.1667 237.833,59.1667 236.5,58.5 Z"/></g>
<g><path style="opacity:1" fill="#1984c1" d="M 55.5,47.5 C 54.7101,48.7942 53.7101,49.9609 52.5,51C 50.2852,51.1705 48.2852,51.8372 46.5,53C 47.3802,54.3561 47.7135,55.8561 47.5,57.5C 49.8568,57.6633 52.1902,57.4966 54.5,57C 55.5,55 56.5,55 57.5,57C 56.6634,58.0113 56.33,59.1779 56.5,60.5C 50.2899,60.8186 44.2899,60.152 38.5,58.5C 38.5499,60.5901 37.5499,61.9234 35.5,62.5C 34.2638,61.7542 32.9305,61.4208 31.5,61.5C 32.1527,79.1989 31.486,96.5322 29.5,113.5C 28.3618,96.544 28.1951,79.544 29,62.5C 29.985,61.1859 31.1516,60.1859 32.5,59.5C 33.2905,58.5987 34.2905,57.9321 35.5,57.5C 39.1682,56.0017 42.5015,54.0017 45.5,51.5C 46.5137,50.3263 47.847,49.6596 49.5,49.5C 51.6854,49.2964 53.6854,48.6298 55.5,47.5 Z"/></g>
<g><path style="opacity:1" fill="#23304f" d="M 157.5,47.5 C 156.402,48.397 156.402,49.2303 157.5,50C 155.741,50.9804 154.074,51.647 152.5,52C 153.167,52.3333 153.833,52.6667 154.5,53C 150.487,52.6661 147.821,54.3327 146.5,58C 141.57,58.8486 137.237,60.6819 133.5,63.5C 132.508,63.6716 131.842,63.3382 131.5,62.5C 132.167,62.5 132.5,62.1667 132.5,61.5C 140.708,56.5638 149.041,51.8971 157.5,47.5 Z"/></g>
<g><path style="opacity:1" fill="#d9dcd8" d="M 238.5,59.5 C 239.833,60.1667 239.833,60.1667 238.5,59.5 Z"/></g>
<g><path style="opacity:1" fill="#c6f3fb" d="M 132.5,61.5 C 132.5,62.1667 132.167,62.5 131.5,62.5C 131.167,62.5 130.833,62.5 130.5,62.5C 129.167,61.5 127.833,60.5 126.5,59.5C 128.83,58.7199 130.83,59.3866 132.5,61.5 Z"/></g>
<g><path style="opacity:1" fill="#d7dede" d="M 235.5,61.5 C 236.167,60.1667 236.833,60.1667 237.5,61.5C 236.833,61.5 236.167,61.5 235.5,61.5 Z"/></g>
<g><path style="opacity:1" fill="#e3eee2" d="M 237.5,61.5 C 238.833,62.1667 238.833,62.1667 237.5,61.5 Z"/></g>
<g><path style="opacity:1" fill="#0b1e43" d="M 207.5,46.5 C 209.284,46.8925 210.95,47.5592 212.5,48.5C 212.833,49.5 213.5,50.1667 214.5,50.5C 215.833,50.8333 217.167,51.1667 218.5,51.5C 223.479,54.8031 228.479,58.1364 233.5,61.5C 234.473,79.1198 234.806,96.7864 234.5,114.5C 232.11,114.087 229.777,113.421 227.5,112.5C 229.045,111.548 230.712,111.215 232.5,111.5C 232.5,94.8333 232.5,78.1667 232.5,61.5C 229.153,60.1147 225.819,59.448 222.5,59.5C 220.45,60.0766 219.45,61.4099 219.5,63.5C 217.167,63.5 214.833,63.5 212.5,63.5C 212.5,62.5 212.5,61.5 212.5,60.5C 217.173,60.1582 218.507,57.8249 216.5,53.5C 213.748,53.578 211.082,53.7446 208.5,54C 207.273,52.4126 207.606,51.0793 209.5,50C 208.177,49.1841 207.511,48.0174 207.5,46.5 Z"/></g>
<g><path style="opacity:1" fill="#3c8fbf" d="M 32.5,59.5 C 31.1516,60.1859 29.985,61.1859 29,62.5C 28.1951,79.544 28.3618,96.544 29.5,113.5C 28.9816,114.577 28.6483,115.744 28.5,117C 29.3931,119.936 30.3931,122.769 31.5,125.5C 32.8734,125.657 34.2068,125.49 35.5,125C 34.5494,124.282 34.3828,123.449 35,122.5C 36.6625,124.158 37.4959,126.158 37.5,128.5C 36.8333,128.5 36.1667,128.5 35.5,128.5C 31.9349,127.59 29.2683,125.59 27.5,122.5C 27.5,102.167 27.5,81.8333 27.5,61.5C 27.5,61.1667 27.5,60.8333 27.5,60.5C 29.0418,59.6993 30.7085,59.366 32.5,59.5 Z"/></g>
<g><path style="opacity:1" fill="#1f2d46" d="M 233.5,61.5 C 234.167,61.5 234.833,61.5 235.5,61.5C 234.852,81.9001 235.519,102.067 237.5,122C 234.761,123.026 232.428,124.526 230.5,126.5C 229.391,126.557 228.391,126.89 227.5,127.5C 227.735,123.197 230.069,121.53 234.5,122.5C 234.5,119.833 234.5,117.167 234.5,114.5C 234.806,96.7864 234.473,79.1198 233.5,61.5 Z"/></g>
<g><path style="opacity:1" fill="#d1fdff" d="M 27.5,61.5 C 27.5,81.8333 27.5,102.167 27.5,122.5C 26.8278,102.431 26.1611,82.2645 25.5,62C 26.0944,61.5357 26.7611,61.369 27.5,61.5 Z"/></g>
<g><path style="opacity:1" fill="#d5dccf" d="M 238.5,120.5 C 239.833,121.167 239.833,121.167 238.5,120.5 Z"/></g>
<g><path style="opacity:1" fill="#eaeee6" d="M 238.5,122.5 C 239.833,123.167 239.833,123.167 238.5,122.5 Z"/></g>
<g><path style="opacity:1" fill="#93d2f4" d="M 111.5,110.5 C 117.827,115 124.494,119 131.5,122.5C 131.5,142.5 131.5,162.5 131.5,182.5C 130.402,183.397 130.402,184.23 131.5,185C 133.167,185.667 134.833,185.667 136.5,185C 137.5,183.333 138.833,182 140.5,181C 140.167,180.667 139.833,180.333 139.5,180C 140.793,179.51 142.127,179.343 143.5,179.5C 143.5,182.5 143.5,185.5 143.5,188.5C 141.319,188.284 139.653,189.117 138.5,191C 134.848,191.499 131.182,191.665 127.5,191.5C 127.223,188.552 127.556,185.719 128.5,183C 127.827,180.141 126.993,177.308 126,174.5C 121.667,174.833 117.333,175.167 113,175.5C 112.667,159.833 112.333,144.167 112,128.5C 111.333,127.833 110.667,127.167 110,126.5C 105.333,127.833 100.667,127.833 96,126.5C 96.0926,132.292 95.2593,137.792 93.5,143C 94,143.5 94.5,144 95,144.5C 95.5,165.831 95.6666,187.164 95.5,208.5C 91.2653,212.136 86.5986,212.969 81.5,211C 83.0284,209.639 84.6951,208.472 86.5,207.5C 87.4994,191.514 87.8328,175.514 87.5,159.5C 85.4247,159.698 83.4247,159.865 81.5,160C 80.8767,157.393 80.21,154.893 79.5,152.5C 79.167,132.822 79.5004,113.155 80.5,93.5C 90.7272,99.4452 101.06,105.112 111.5,110.5 Z"/></g>
<g><path style="opacity:1" fill="#efe6e6" d="M 26.5,126.5 C 26.8966,125.475 27.5632,125.308 28.5,126C 27.9056,126.464 27.2389,126.631 26.5,126.5 Z"/></g>
<g><path style="opacity:1" fill="#1085c7" d="M 111.5,110.5 C 101.06,105.112 90.7272,99.4452 80.5,93.5C 79.5004,113.155 79.167,132.822 79.5,152.5C 77.5,151.833 75.5,151.167 73.5,150.5C 68.9826,145.401 63.316,142.068 56.5,140.5C 54.3908,133.778 49.7241,131.112 42.5,132.5C 41.6935,131.272 40.6935,130.272 39.5,129.5C 42.0488,129.387 44.3821,130.054 46.5,131.5C 48.0009,130.248 49.6675,129.248 51.5,128.5C 50.9747,127.808 50.3081,127.308 49.5,127C 51,126.833 52.5,126.667 54,126.5C 57.4966,127.477 60.9966,128.477 64.5,129.5C 64.6257,126.442 66.1257,126.109 69,128.5C 69.1701,134.196 69.6701,139.862 70.5,145.5C 72.9793,147.076 75.646,148.076 78.5,148.5C 78.203,128.8 78.5363,109.133 79.5,89.5C 82.346,89.5897 84.6794,90.7563 86.5,93C 86.1667,93.3333 85.8333,93.6667 85.5,94C 87.3921,94.9734 89.3921,95.6401 91.5,96C 92.5,97.6667 93.8333,99 95.5,100C 101.478,102.802 106.811,106.302 111.5,110.5 Z"/></g>
<g><path style="opacity:1" fill="#96d0f5" d="M 131.5,182.5 C 132.492,182.672 133.158,182.338 133.5,181.5C 148.574,172.438 163.907,163.771 179.5,155.5C 180.757,173.582 180.757,191.916 179.5,210.5C 177.639,211.528 176.305,213.028 175.5,215C 170.126,215.547 166.793,218.381 165.5,223.5C 165.167,223.5 164.833,223.5 164.5,223.5C 153.115,223.627 141.448,223.793 129.5,224C 127.198,226.467 125.531,229.3 124.5,232.5C 121.356,233.928 119.023,233.095 117.5,230C 117.645,229.228 117.978,228.561 118.5,228C 120.167,227.667 121.833,227.333 123.5,227C 124.337,225.989 124.67,224.822 124.5,223.5C 121.5,223.5 118.5,223.5 115.5,223.5C 115.67,224.822 115.337,225.989 114.5,227C 110.237,228.539 107.57,227.206 106.5,223C 108.134,222.506 109.801,222.34 111.5,222.5C 111.827,217.786 111.493,213.12 110.5,208.5C 105.479,207.209 100.479,207.209 95.5,208.5C 95.6666,187.164 95.5,165.831 95,144.5C 94.5,144 94,143.5 93.5,143C 95.2593,137.792 96.0926,132.292 96,126.5C 100.667,127.833 105.333,127.833 110,126.5C 110.667,127.167 111.333,127.833 112,128.5C 112.333,144.167 112.667,159.833 113,175.5C 117.333,175.167 121.667,174.833 126,174.5C 126.993,177.308 127.827,180.141 128.5,183C 127.556,185.719 127.223,188.552 127.5,191.5C 131.182,191.665 134.848,191.499 138.5,191C 139.653,189.117 141.319,188.284 143.5,188.5C 143.5,185.5 143.5,182.5 143.5,179.5C 142.127,179.343 140.793,179.51 139.5,180C 139.833,180.333 140.167,180.667 140.5,181C 138.833,182 137.5,183.333 136.5,185C 134.833,185.667 133.167,185.667 131.5,185C 130.402,184.23 130.402,183.397 131.5,182.5 Z"/></g>
<g><path style="opacity:1" fill="#e5ece9" d="M 230.5,126.5 C 231.833,127.167 231.833,127.167 230.5,126.5 Z"/></g>
<g><path style="opacity:1" fill="#234370" d="M 131.5,122.5 C 131.833,122.5 132.167,122.5 132.5,122.5C 132.17,142.34 132.503,162.007 133.5,181.5C 133.158,182.338 132.492,182.672 131.5,182.5C 131.5,162.5 131.5,142.5 131.5,122.5 Z"/></g>
<g><path style="opacity:1" fill="#ade1f6" d="M 35.5,128.5 C 36.1667,128.5 36.8333,128.5 37.5,128.5C 37.8417,129.338 38.5084,129.672 39.5,129.5C 40.6935,130.272 41.6935,131.272 42.5,132.5C 39.6689,131.921 37.3356,130.588 35.5,128.5 Z"/></g>
<g><path style="opacity:1" fill="#e2e3ec" d="M 223.5,131.5 C 224.833,132.167 224.833,132.167 223.5,131.5 Z"/></g>
<g><path style="opacity:1" fill="#4c97c3" d="M 42.5,132.5 C 49.7241,131.112 54.3908,133.778 56.5,140.5C 51.4997,138.336 46.833,135.669 42.5,132.5 Z"/></g>
<g><path style="opacity:1" fill="#e6e6eb" d="M 226.5,132.5 C 227.833,133.167 227.833,133.167 226.5,132.5 Z"/></g>
<g><path style="opacity:1" fill="#fef1dd" d="M 39.5,133.5 C 40.8333,134.167 40.8333,134.167 39.5,133.5 Z"/></g>
<g><path style="opacity:1" fill="#28314f" d="M 227.5,127.5 C 222.2,130.821 216.866,134.154 211.5,137.5C 208.996,138.584 206.663,139.917 204.5,141.5C 203.609,142.11 202.609,142.443 201.5,142.5C 202.067,140.97 202.733,139.47 203.5,138C 203.167,137.667 202.833,137.333 202.5,137C 209.154,134.841 215.488,131.841 221.5,128C 223.473,127.505 225.473,127.338 227.5,127.5 Z"/></g>
<g><path style="opacity:1" fill="#e3e8f5" d="M 211.5,137.5 C 212.239,137.369 212.906,137.536 213.5,138C 212.563,138.692 211.897,138.525 211.5,137.5 Z"/></g>
<g><path style="opacity:1" fill="#e5ebe6" d="M 214.5,138.5 C 215.833,139.167 215.833,139.167 214.5,138.5 Z"/></g>
<g><path style="opacity:1" fill="#e9ede3" d="M 214.5,140.5 C 215.833,141.167 215.833,141.167 214.5,140.5 Z"/></g>
<g><path style="opacity:1" fill="#ebe8e6" d="M 54.5,141.5 C 55.8333,142.167 55.8333,142.167 54.5,141.5 Z"/></g>
<g><path style="opacity:1" fill="#e2eaf3" d="M 204.5,141.5 C 205.833,142.167 205.833,142.167 204.5,141.5 Z"/></g>
<g><path style="opacity:1" fill="#e8eae1" d="M 212.5,141.5 C 213.833,142.167 213.833,142.167 212.5,141.5 Z"/></g>
<g><path style="opacity:1" fill="#78bcd5" d="M 56.5,140.5 C 63.316,142.068 68.9826,145.401 73.5,150.5C 67.3315,147.92 61.6649,144.586 56.5,140.5 Z"/></g>
<g><path style="opacity:1" fill="#eaeee4" d="M 214.5,142.5 C 215.833,143.167 215.833,143.167 214.5,142.5 Z"/></g>
<g><path style="opacity:1" fill="#566278" d="M 199.5,143.5 C 198.694,144.728 197.694,145.728 196.5,146.5C 196.167,146.5 195.833,146.5 195.5,146.5C 195.586,145.504 195.252,144.671 194.5,144C 196.134,143.506 197.801,143.34 199.5,143.5 Z"/></g>
<g><path style="opacity:1" fill="#dee8f0" d="M 196.5,146.5 C 197.833,147.167 197.833,147.167 196.5,146.5 Z"/></g>
<g><path style="opacity:1" fill="#e5e8e6" d="M 197.5,148.5 C 198.833,149.167 198.833,149.167 197.5,148.5 Z"/></g>
<g><path style="opacity:1" fill="#222d49" d="M 192.5,147.5 C 190.206,149.653 187.54,151.32 184.5,152.5C 183.167,152.833 181.833,153.167 180.5,153.5C 180.33,152.178 180.663,151.011 181.5,150C 184.876,148.101 188.543,147.268 192.5,147.5 Z"/></g>
<g><path style="opacity:1" fill="#ece2e7" d="M 186.5,156.5 C 187.833,157.167 187.833,157.167 186.5,156.5 Z"/></g>
<g><path style="opacity:1" fill="#99d1ee" d="M 73.5,150.5 C 75.5,151.167 77.5,151.833 79.5,152.5C 80.21,154.893 80.8767,157.393 81.5,160C 83.4247,159.865 85.4247,159.698 87.5,159.5C 87.8328,175.514 87.4994,191.514 86.5,207.5C 84.6951,208.472 83.0284,209.639 81.5,211C 86.5986,212.969 91.2653,212.136 95.5,208.5C 100.479,207.209 105.479,207.209 110.5,208.5C 111.493,213.12 111.827,217.786 111.5,222.5C 109.801,222.34 108.134,222.506 106.5,223C 107.57,227.206 110.237,228.539 114.5,227C 115.337,225.989 115.67,224.822 115.5,223.5C 118.5,223.5 121.5,223.5 124.5,223.5C 124.67,224.822 124.337,225.989 123.5,227C 121.833,227.333 120.167,227.667 118.5,228C 117.978,228.561 117.645,229.228 117.5,230C 119.023,233.095 121.356,233.928 124.5,232.5C 125.531,229.3 127.198,226.467 129.5,224C 141.448,223.793 153.115,223.627 164.5,223.5C 154.731,229.892 144.731,236.059 134.5,242C 132.5,242.667 130.5,242.667 128.5,242C 112.532,232.68 96.5322,223.347 80.5,214C 79.8333,195.333 79.1667,176.667 78.5,158C 79.3802,156.644 79.7135,155.144 79.5,153.5C 76.911,153.539 74.911,152.539 73.5,150.5 Z"/></g>
<g><path style="opacity:1" fill="#9ed1e5" d="M 184.5,152.5 C 183.733,172.209 183.233,192.542 183,213.5C 177.221,216.972 171.387,220.305 165.5,223.5C 166.793,218.381 170.126,215.547 175.5,215C 176.305,213.028 177.639,211.528 179.5,210.5C 180.757,191.916 180.757,173.582 179.5,155.5C 179.833,154.833 180.167,154.167 180.5,153.5C 181.833,153.167 183.167,152.833 184.5,152.5 Z"/></g>
</svg>
